# xmcd
#
# Track frame offsets:
#	150
#	19977
#	39774
#	59882
#	76738
#	91881
#	108380
#	127071
#	144045
#	163872
#	183669
#	203728
#	220894
#	236037
#	252536
#	271227
#
# Disc length: 3844 seconds
#
# Revision: 2
# Processed by: cddbd v1.5.2PL0 Copyright (c) Steve Scherf et al.
# Submitted via: audiograbber 1.83.01
#
DISCID=e50f0210
DTITLE=Various Artist - FSK4-32
DYEAR=1900
DGENRE=Karaoke
TTITLE0=Keith Urban - Making Memories Of Us
TTITLE1=Kenny Chesney - I Go Back
TTITLE2=Tim Mcgraw - Real Good Man
TTITLE3=Toby Keith - Stays In Mexico
TTITLE4=Alan Jackson - Too Much Of  A Good Thing
TTITLE5=Brooks and Dunn - Thats What Its All About
TTITLE6=George Strait - I Hate Everything
TTITLE7=Phil Vassor - In A Real Love
TTITLE8=Keith Urban - Making Memories Of Us w vocals
TTITLE9=Kenny Chesney - I Go Back w vocals
TTITLE10=Tim Mcgraw - Real Good Man w vocals
TTITLE11=Toby Keith - Stays In Mexico w vocals
TTITLE12=Alan Jackson - Too Much Of  A Good Thing w vocals
TTITLE13=Brooks and Dunn - Thats What Its All About w vocals
TTITLE14=George Strait - I Hate Everything w vocals
TTITLE15=Phil Vassor - In A Real Love w vocals
EXTD=
EXTT0=
EXTT1=
EXTT2=
EXTT3=
EXTT4=
EXTT5=
EXTT6=
EXTT7=
EXTT8=
EXTT9=
EXTT10=
EXTT11=
EXTT12=
EXTT13=
EXTT14=
EXTT15=
PLAYORDER=
